PathFileType        4      (X/Y/Z)      C:\Users\pc\Desktop\IMUTRC\Sujet_08\Sujet_08_velo_100.trc         
DataRate	CameraRate	NumFrames	NumMarkers	Units	OrigDataRate	OrigDataStartFrame	OrigNumFrames
60.0	60.0	4	64	mm	60.0	1	932
Frame#	Time	pHipOrigin			pRightASI			pLeftASI			pRightCSI			pLeftCSI			pRightIschialTub			pLeftIschialTub			pSacrum			pL5SpinalProcess			pL3SpinalProcess			pT12SpinalProcess			pIJ			pT4SpinalProcess			pT8SpinalProcess			pPX			pC7SpinalProcess			pTopOfHead			pRightAuricularis			pLeftAuricularis			pBackOfHead			pRightAcromion			pLeftAcromion			pRightArmLatEpicondyle			pRightArmMedEpicondyle			pLeftArmLatEpicondyle			pLeftArmMedEpicondyle			pRightUlnarStyloid			pRightRadialStyloid			pRightOlecranon			pLeftUlnarStyloid			pLeftRadialStyloid			pLeftOlecranon			pRightTopOfHand			pRightPinky			pRightBallHand			pLeftTopOfHand			pLeftPinky			pLeftBallHand			pRightGreaterTrochanter			pRightKneeLatEpicondyle			pRightKneeMedEpicondyle			pRightPatella			pLeftGreaterTrochanter			pLeftKneeLatEpicondyle			pLeftKneeMedEpicondyle			pLeftPatella			pRightTibialTub			pRightLatMalleolus			pRightMedMalleolus			pLeftTibialTub			pLeftLatMalleolus			pLeftMedMalleolus			pRightHeelFoot			pRightFirstMetatarsal			pRightFifthMetatarsal			pRightPivotFoot			pRightHeelCenter			pRightToe			pLeftHeelFoot			pLeftFirstMetatarsal			pLeftFifthMetatarsal			pLeftPivotFoot			pLeftHeelCenter			pLeftToe			
		X1	Y1	Z1	X2	Y2	Z2	X3	Y3	Z3	X4	Y4	Z4	X5	Y5	Z5	X6	Y6	Z6	X7	Y7	Z7	X8	Y8	Z8	X9	Y9	Z9	X10	Y10	Z10	X11	Y11	Z11	X12	Y12	Z12	X13	Y13	Z13	X14	Y14	Z14	X15	Y15	Z15	X16	Y16	Z16	X17	Y17	Z17	X18	Y18	Z18	X19	Y19	Z19	X20	Y20	Z20	X21	Y21	Z21	X22	Y22	Z22	X23	Y23	Z23	X24	Y24	Z24	X25	Y25	Z25	X26	Y26	Z26	X27	Y27	Z27	X28	Y28	Z28	X29	Y29	Z29	X30	Y30	Z30	X31	Y31	Z31	X32	Y32	Z32	X33	Y33	Z33	X34	Y34	Z34	X35	Y35	Z35	X36	Y36	Z36	X37	Y37	Z37	X38	Y38	Z38	X39	Y39	Z39	X40	Y40	Z40	X41	Y41	Z41	X42	Y42	Z42	X43	Y43	Z43	X44	Y44	Z44	X45	Y45	Z45	X46	Y46	Z46	X47	Y47	Z47	X48	Y48	Z48	X49	Y49	Z49	X50	Y50	Z50	X51	Y51	Z51	X52	Y52	Z52	X53	Y53	Z53	X54	Y54	Z54	X55	Y55	Z55	X56	Y56	Z56	X57	Y57	Z57	X58	Y58	Z58	X59	Y59	Z59	X60	Y60	Z60	X61	Y61	Z61	X62	Y62	Z62	X63	Y63	Z63	X64	Y64	Z64	
1	0.0	0.0	1249.97582	7.653894434872941E-14	92.57583563210149	1315.41535	135.26328796121715	100.87904353636364	1315.73851	-129.02100083825783	77.30588673509087	1392.16542	111.482103833868	83.96104532697298	1392.48858	-106.09381883456723	-72.85456608232046	1218.62948	52.13530098930868	-69.5269867863794	1218.79106	-56.652660344908924	-52.894418448307164	1293.60217	-1.5656099472033194	17.143936313085614	1370.19066	1.940801028793206	90.2539986850651	1458.57442	2.5405994350681067	156.33149001153348	1540.33344	2.723451363675986	405.4411254509165	1570.22557	-10.354370655689241	297.91214467417524	1666.04197	-0.6027386954422244	229.30214916993526	1614.49824	1.729782616180784	314.85840972982294	1496.06077	-7.475774377717834	344.2179140611883	1699.32726	-2.2454699916866714	597.3511438790254	1734.71308	-24.391765060527867	513.3691000232668	1706.43674	51.311013406543076	500.1491394536024	1708.05253	-82.75201358518761	491.6389792524591	1757.81889	-13.537485704300002	352.6287991487317	1636.79616	152.8825174093176	333.0483844699872	1641.32037	-161.37564360266904	464.8897811583	1374.39172	144.78130113035286	445.0190983128724	1367.44382	86.76622233400519	419.67772781201563	1373.58382	-200.2651254493979	415.8299727945126	1364.37381	-139.37211699715206	568.1107797030373	1146.24205	130.36020431906152	610.9537942465831	1169.50943	112.73442397293157	432.9254057866915	1362.11171	126.81891714096543	536.4869798909233	1148.01942	-189.15224549897022	581.0427467404795	1174.51839	-187.20117740572516	394.2005062486303	1358.71855	-172.91902583600566	740.7572838694036	1073.85461	214.69190897944264	653.0858740165336	1075.14725	182.67938516642604	611.3760994122568	1118.93518	134.6032889956881	682.513479337501	1058.98934	-301.59361393856005	608.7952623568278	1066.90671	-244.90983546241318	579.4038741424673	1120.55097	-198.06804952343617	23.76498841744848	1237.21107	160.20732374142284	389.0437814512902	1082.74146	145.6824644378425	393.21467973887155	1084.35726	68.8192631074533	405.2107574589788	1124.26729	106.30561312443474	19.612758998798654	1221.37632	-158.61194819075615	258.3487289633587	905.81236	-126.39712867031203	262.99166861941444	909.85184	-49.73158450904013	293.39168471165556	936.02765	-88.9773836159813	430.4571402026684	1045.90143	110.40480351117326	272.6726689405821	699.31429	139.57762379924907	278.42119997940773	696.8906	79.43584496620441	295.61967135135603	862.50917	-87.10788084834068	86.72994280676211	545.65258	-129.50346192849156	85.82156594199267	543.87521	-69.09699723566791	216.0595845241506	633.39002	105.9947560686562	362.67287997583	590.40999	64.49523139497994	363.9098199867521	585.40103	138.9355725855883	383.44725404796975	581.68471	100.06667962795474	252.329381197114	624.98791	105.00067002102624	459.3416515183261	557.44785	97.09686282180868	3.0870917015511594	516.56834	-104.98214095364986	107.10131692306096	405.72509	-60.52193305127118	112.27805941948579	405.24035	-135.06464996239882	124.10196957557173	390.2135	-95.61350164085805	30.678163557767647	491.68516	-102.92313622968769	178.60120369917217	332.2066	-91.4357382476196	
2	0.017	0.0	1249.97582	7.653894434872941E-14	92.0366116830897	1315.25377	135.65453618372067	99.88454142116723	1318.00062	-128.5899209374623	75.68822131593163	1392.16542	112.65584084093408	82.21961010713905	1394.42752	-105.0239370215982	-72.41920375528184	1217.33684	51.86783022792432	-69.19548608131393	1218.4679	-56.79635364517411	-53.4336347368745	1292.95586	-1.1743552968237185	15.83784933196976	1370.35224	2.743213312946232	88.30483898871651	1459.5439	3.8580220819549464	153.9071439702987	1541.46449	3.853073033638632	402.8332480032484	1572.3261	-10.011520196532206	294.99268236058765	1667.81934	0.11144414707225091	226.63024820646217	1616.11403	2.6516810421971253	312.3942320102961	1497.83814	-6.80143087393983	341.2785359084547	1701.26621	-1.758926232264552	594.3719417084442	1736.49045	-24.360493039414344	510.51366765336036	1708.53727	51.44614062175378	497.1898454617228	1709.8299	-82.49310890885776	488.88740850452575	1759.75784	-13.526135950208475	349.93697591823644	1638.7351	153.57678441268607	329.54988061741636	1643.25932	-160.725491936404	463.0046526382009	1376.49225	145.51968223825642	442.80246908770783	1369.22119	87.64829674217395	416.9859045815204	1375.68435	-199.57085844602943	413.1381495640174	1366.47434	-138.67784999378364	566.4731984447321	1148.50415	131.3063022430353	609.1924355271588	1171.77154	113.57666027493228	430.81263052305565	1364.05066	127.57720766013884	534.1664878112172	1150.28152	-188.14640771800282	578.494609149805	1176.78049	-186.17541612516737	391.508683018135	1360.65749	-172.22475883263726	739.1396184502445	1076.60146	215.8656459865087	651.5720702193474	1077.57093	183.72934471237295	609.7584339930976	1121.19729	135.77702600275424	680.3366817906285	1061.08987	-300.25626136420675	606.4946796883918	1069.00724	-243.6763509379091	576.9795216733564	1122.81308	-196.93842019302915	22.027821535537086	1232.20212	160.01523391037946	377.58650395218393	1056.72723	144.50573634424038	382.9354293335189	1060.92829	67.99823398430571	396.7881536495247	1098.73779	107.04249547513221	22.50802304699711	1222.99211	-158.2917972397822	274.34162134968517	918.57711	-120.57084390436717	276.93582977410665	922.61659	-43.726066083793924	307.06409267872033	950.24661	-82.1452546411929	421.46405327884116	1023.28036	108.55371659290421	281.33426158722006	669.58374	141.57239635733882	286.50372933829743	666.99847	81.36658115273696	307.04417683957433	874.30444	-82.37289372428522	80.06163804932841	571.34365	-133.6223530764326	79.15325352411455	567.95049	-73.21589481148506	225.7355874646865	603.49789	107.78608138116665	372.68465961979837	562.94154	64.8808981910889	374.37687136902906	557.44785	139.28141536384962	393.66675050800836	554.37785	100.20479916226981	261.9655460314818	595.58052	106.33672482779646	469.85282466558255	531.11046	96.63601731755008	-4.096238739505196	546.46047	-109.74411767257584	94.72213976536999	431.09301	-64.37057619666699	100.60171658278611	430.44669	-138.74538745381977	111.39129937325971	414.9351	-99.31844505811257	22.48041516236887	520.28466	-107.48167213091045	163.17879442721892	354.82768	-94.67405374459793	
3	0.033	0.0	1249.97582	7.653894434872941E-14	91.26975507886172	1315.25377	136.06569258492576	98.89005339429136	1320.26272	-128.1588422692351	74.17442517919002	1392.16542	113.7058068147571	80.37430560488752	1396.20489	-103.83028417538608	-71.96393324954164	1216.04421	51.82799212175621	-68.76013784259584	1218.14474	-57.06382317399012	-53.972858685886266	1292.30954	-0.7831070743202123	14.427907156756856	1370.6754	3.6693953977739926	86.33576468579025	1460.35179	4.947819734069999	151.60656896230697	1542.75713	5.086563986018868	400.2253769834564	1574.42663	-9.668677397819653	292.1969975081193	1669.59671	0.9294886115598785	223.97825665425896	1617.72982	3.8012262117502185	309.93004786289316	1499.61551	-6.127079709717401	338.46294164471647	1703.20516	-1.168528511313648	591.620370960511	1738.26782	-24.349143285322732	507.65824294389836	1710.47622	51.58127426484054	494.1067740087241	1711.60727	-82.33806585450115	485.9082063339447	1761.69679	-13.494863929094839	347.2451591156173	1640.67405	154.27104375561007	326.05136267652506	1645.19827	-160.07533903757064	461.11951645765737	1378.59277	146.25805691828387	440.5858322020988	1370.99856	88.5303647224666	414.29408777890126	1377.6233	-198.8765991031054	410.5700961341969	1368.57487	-137.87972779631812	564.8356248468713	1150.60468	132.25240659488512	607.554861929298	1174.03365	114.52276462678206	428.82364038098336	1365.9896	128.4393662291616	531.8459969640794	1152.38205	-187.1405558487149	576.1741247305434	1179.0426	-185.16957191632383	388.81686621551586	1362.75802	-171.53049948971318	737.6258146530585	1079.3483	216.91560553245566	649.9544124606327	1079.99462	184.90308814731512	608.1208527347924	1123.45939	136.72312392672796	678.2836540444307	1063.35197	-298.81505359575624	604.3178885693953	1071.10777	-242.33900602400013	574.5551679716772	1125.07519	-195.80880495094266	19.8154747366156	1227.35475	159.63533544196747	364.6837426862602	1031.68247	142.53794572057672	371.41841074485063	1038.14564	66.13858098098214	386.90015789455157	1073.69304	106.76068264055198	25.195562618680924	1224.76948	-157.72410545489043	289.5676571317836	931.98818	-114.33340273721716	290.21698309079187	936.02765	-37.43315339757291	319.9497217745351	965.11189	-75.12960068784737	412.3671123934851	1000.82087	106.82641356363044	290.5549863615713	640.82266	143.4035533481413	294.917767062697	638.2374	83.15363046688043	318.4686823277926	886.26129	-77.63790660022981	74.21993618099242	598.8121	-137.46949746462232	73.18776776678328	593.47999	-77.16689316120348	235.28780651622714	573.60576	109.47355273214836	382.4688014132427	535.63467	65.28649491466436	384.8439368396264	529.49467	139.62725690954264	404.0100385174866	526.9094	100.44677908598968	271.72548832696873	566.3347	107.77664125653985	480.36399015239454	504.93465	96.17516538541534	-10.824305102697465	576.19103	-114.54592483722548	82.21919280700429	456.78408	-68.32307453615984	89.02923413549124	455.97618	-142.54991649468045	98.6806291709477	439.81828	-103.02338847536707	14.40644422808925	549.04574	-111.93634641016004	147.8602467772388	377.61033	-98.03614670269548	
4	0.05	0.0	1249.97582	7.653894434872941E-14	91.3935325399809	1315.25377	136.1695542068989	97.52421889573748	1322.20167	-128.039347234359	73.19984533101572	1392.00384	114.36451813820051	78.36539962366923	1397.82068	-103.19576468945566	-71.38488405011394	1215.07474	51.89202972588176	-68.86399946456899	1217.82158	-56.940045712870955	-54.26452128478361	1291.8248	-0.18414326831483313	13.349473347053847	1370.83698	4.451890610212673	84.67826758833903	1460.99811	5.666278574951446	149.59765532064424	1543.88818	5.721077044073178	398.01302375665875	1576.04242	-10.048568205787223	289.9007049263707	1671.05092	0.9010066873593872	221.7018799116563	1619.02246	4.000383370642012	307.985171825356	1501.06972	-6.071615851090763	336.02294933482654	1704.65937	-1.5285034801352233	589.2643244334481	1739.88361	-25.06053479835584	505.30220284471164	1712.25359	50.869875091363035	491.64687228756424	1713.22306	-82.9256875668594	483.55215980688183	1763.47416	-14.206255442127832	345.280360811058	1642.12827	154.09887619158883	322.94837538438026	1646.65248	-160.1479350663063	459.62991215842874	1380.20856	146.27369675906291	438.7647336256808	1372.45277	88.68969020306636	412.0177046084225	1379.40067	-198.67743428376917	408.5213584746866	1370.35224	-137.70048647657234	563.5096284544857	1152.38205	132.82717213550143	606.105088075793	1175.64944	114.99366854542517	427.00254180456534	1367.44382	128.59869170976137	529.8370833224167	1154.15942	-186.50604279066062	574.165218749325	1180.98155	-184.5350524303935	386.6642669340324	1364.37381	-171.22748070884828	736.3197340998187	1081.44883	217.71801015616427	648.7521935293661	1081.93357	185.5817153099046	606.7948640028511	1125.23676	137.29789589522042	676.6460727861255	1065.12934	-297.86895567178254	602.556529849971	1073.04672	-241.49676972199953	572.8976785346704	1127.01413	-195.090339682185	18.058399676002608	1223.15369	159.21561295570788	349.3410031987671	1005.66824	140.21017889552314	357.7089624289752	1014.07035	64.12668268065948	374.90366287430965	1047.19407	105.97519510900895	27.511771039575578	1227.03159	-157.46798444759762	305.9361707555867	948.30766	-109.457513642378	304.9721149542472	952.02398	-32.645486083927864	333.7302737898161	982.72401	-69.6832220507589	400.2070094664003	977.55348	105.48180033225017	293.7419130086671	612.54632	143.12474049310987	298.10470013766883	610.12263	82.87480995140454	330.9318052683107	901.77289	-74.14067999904549	73.54558501676996	627.4116	-139.93368161202525	72.26586934076694	620.94843	-79.83879412467661	238.5786012131722	544.84468	109.07095475555334	385.8236260538689	507.51991	64.30484131076557	388.4263941354688	501.05675	138.62569512694225	407.46871835220975	498.63306	99.34135568141613	275.1201446458869	537.57362	107.25026581882567	484.03039323106407	476.98147	94.82218705860348	-12.736416789791043	605.92158	-118.04872643692822	76.33337040625707	483.60621	-71.36351655350902	83.47491886768557	482.79831	-145.73405947273926	92.44339665386511	466.31725	-106.14778393598782	11.707561330190018	577.9684	-115.2556166034295	139.5941847793475	402.17035	-100.75366818835423	
